<?xml version="1.0" encoding="utf-8" standalone="yes"?>
<!DOCTYPE svg PUBLIC "-//W3C//DTD SVG 1.1//EN" "http://www.w3.org/Graphics/SVG/1.1/DTD/svg11.dtd">
<svg width="758" height="644" viewBox="0 0 758 644" style="fill:none;stroke:none;fill-rule:evenodd;clip-rule:evenodd;stroke-linecap:round;stroke-linejoin:round;stroke-miterlimit:1.5;" version="1.1" xmlns="http://www.w3.org/2000/svg" xmlns:xlink="http://www.w3.org/1999/xlink"><style class="text-font-style fontImports" data-font-family="Comfortaa">@import url('https://fonts.googleapis.com/css2?family=Comfortaa:wght@400;700&amp;display=block');</style><g id="items" style="isolation: isolate"><g id="blend" style="mix-blend-mode: normal"><g id="g-root--1.cu_sy_qvaxmk5vfwnd-fill" data-item-order="-181592" transform="translate(325.746826171875, 110.94775390625)"><g id="-1.cu_sy_qvaxmk5vfwnd-fill" stroke="none" fill="#6b6b6b"><g><path d="M 65.281296 473.927185C 80.139046 473.927185 105.164558 370.073914 105.164558 241.963593C 105.164558 113.853279 80.139046 10.000002 65.281296 10.000002C 80.159286 10.012095 92.21991 114.169502 92.21991 241.963593C 92.21991 369.75769 80.159286 473.915283 65.281296 473.927185ZM 65.280602 473.927185C 80.158684 473.915283 92.219307 369.75769 92.219307 241.963593C 92.219307 114.169502 80.158684 10.012095 65.280602 10.000002L 51.592266 10.000002C 65.57283 18.321449 76.61451 119.303429 76.61451 241.963593C 76.61451 364.623779 64.900635 465.605225 50.920067 473.927185L 65.280602 473.927185ZM 76.615204 241.963593C 76.615204 364.623779 64.901329 465.605225 50.920761 473.927185L 49.71286 473.927185C 34.855198 473.927185 10.000006 370.073914 10.000006 241.963593C 10.000006 113.853279 34.855198 10.000002 49.71286 10.000002C 50.344917 10.000002 51.59296 10.000002 51.59296 10.000002C 65.573532 18.321449 76.615204 119.303429 76.615204 241.963593Z"></path></g></g></g><g id="g-root-0.cr-medium_cr_mfhfi45vfxfm-fill" data-item-order="-181588" transform="translate(493.276123046875, 307.22467041015625)"><g id="0.cr-medium_cr_mfhfi45vfxfm-fill" stroke="none" fill="#6b6b6b"><g><path d="M 10.003881 45.68533C 9.788096 58.576714 16.542029 70.582268 27.67172 77.091057C 38.801411 83.599847 52.57635 83.599847 63.706041 77.091057C 74.835732 70.582268 81.589666 58.576714 81.37388 45.685329C 81.589666 32.793945 74.835732 20.78839 63.706041 14.279601C 52.57635 7.770812 38.801411 7.770812 27.67172 14.279601C 16.542029 20.78839 9.788096 32.793945 10.003881 45.685329"></path></g></g></g><g id="g-root-6.line_sy_djuf985vfy8b-fill" data-item-order="-181581" transform="translate(242.47787475585938, 384.54583740234375)"></g><g id="g-root-6.cr-small_cr_94ne7w5vfvus-fill" data-item-order="-181580" transform="translate(183, 521.3449096679688)"><g id="6.cr-small_cr_94ne7w5vfvus-fill" stroke="none" fill="#5a48a4"><g><path d="M 9.999998 39.73509C 10 56.16004 23.315051 69.475091 39.739999 69.475091C 56.164948 69.475091 69.479999 56.16004 69.479999 39.735092C 69.479999 23.310143 56.164948 9.995092 39.739999 9.995092C 23.315051 9.995092 10 23.310143 10 39.735092"></path></g></g></g><g id="g-root-5.line_sy_94ne7w5vfvut-fill" data-item-order="-181573" transform="translate(242.47787475585938, 370.667724609375)"></g><g id="g-root-5.cr-small_cr_90dz05vfwni-fill" data-item-order="-181572" transform="translate(183, 438.075927734375)"><g id="5.cr-small_cr_90dz05vfwni-fill" stroke="none" fill="#82489d"><g><path d="M 9.999998 39.734072C 10 56.159022 23.315051 69.474073 39.739999 69.474073C 56.164948 69.474073 69.479999 56.159022 69.479999 39.734074C 69.479999 23.309125 56.164948 9.994074 39.739999 9.994074C 23.315051 9.994074 10 23.309125 10 39.734074"></path></g></g></g><g id="g-root-4.line_sy_1uuaxto5vfx8n-fill" data-item-order="-181565" transform="translate(242.47787475585938, 352.8243408203125)"></g><g id="g-root-4.cr-small_cr_1qehfp85vfy0w-fill" data-item-order="-181564" transform="translate(183, 354.80694580078125)"><g id="4.cr-small_cr_1qehfp85vfy0w-fill" stroke="none" fill="#914673"><g><path d="M 9.999998 39.743054C 10 56.168004 23.315051 69.483055 39.739999 69.483055C 56.164948 69.483055 69.479999 56.168004 69.479999 39.743055C 69.479999 23.318107 56.164948 10.003056 39.739999 10.003056C 23.315051 10.003056 10 23.318107 10 39.743055"></path></g></g></g><g id="g-root-3.line_sy_1hjgwjg5vfvnt-fill" data-item-order="-181557" transform="translate(242.5863037109375, 301.27691650390625)"></g><g id="g-root-3.cr-small_cr_1d3nef05vfwg2-fill" data-item-order="-181556" transform="translate(183, 271.5379638671875)"><g id="3.cr-small_cr_1d3nef05vfwg2-fill" stroke="none" fill="#954643"><g><path d="M 9.999998 39.742036C 10 56.166986 23.315051 69.482037 39.739999 69.482037C 56.164948 69.482037 69.479999 56.166986 69.479999 39.742037C 69.479999 23.317089 56.164948 10.002038 39.739999 10.002038C 23.315051 10.002038 10 23.317089 10 39.742037"></path></g></g></g><g id="g-root-2.line_sy_1480e645vfx8r-fill" data-item-order="-181549" transform="translate(242.47787475585938, 218.0079345703125)"></g><g id="g-root-2.cr-small_cr_zs6w1o5vfy10-fill" data-item-order="-181548" transform="translate(183, 188.26898193359375)"><g id="2.cr-small_cr_zs6w1o5vfy10-fill" stroke="none" fill="#815d3b"><g><path d="M 9.999998 39.741018C 10 56.165968 23.315051 69.481019 39.739999 69.481019C 56.164948 69.481019 69.479999 56.165968 69.479999 39.741019C 69.479999 23.316071 56.164948 10.00102 39.739999 10.00102C 23.315051 10.00102 10 23.316071 10 39.741019"></path></g></g></g><g id="g-root-1.line_sy_zs6w1o5vfy11-fill" data-item-order="-181541" transform="translate(242.47787475585938, 134.7388916015625)"></g><g id="g-root-1.cr-small_cr_qn6ri45vha8e-fill" data-item-order="-181540" transform="translate(183, 105)"><g id="1.cr-small_cr_qn6ri45vha8e-fill" stroke="none" fill="#776f30"><g><path d="M 10 39.74C 10.000002 56.16495 23.315053 69.480001 39.740001 69.480001C 56.16495 69.480001 69.480001 56.16495 69.480001 39.740001C 69.480001 23.315053 56.16495 10.000002 39.740001 10.000002C 23.315053 10.000002 10.000002 23.315053 10.000002 39.740001"></path></g></g></g><g id="g-root-2_dgp67w6571fr-fill" data-item-order="0" transform="translate(194.73892211914062, 283.27685546875)"></g><g id="g-root-comp_dbq94s5vhbtb-fill" data-item-order="0" transform="translate(503.9715576171875, 318.911376953125)"></g><g id="g-root-tx_unifiedd_1qd7vek65bbwp-fill" data-item-order="0" transform="translate(575.5538330078125, 318.911376953125)"><g id="tx_unifiedd_1qd7vek65bbwp-fill" stroke="none" fill="#f4f4f4"><g><text style="font: 20px Comfortaa, sans-serif; white-space: pre;" font-size="20px" font-family="Comfortaa, sans-serif"><tspan x="12" y="33.2" dominant-baseline="ideographic">Merged </tspan><tspan x="12" y="57.2" dominant-baseline="ideographic">Dataset</tspan></text></g></g></g><g id="g-root-tx_activele_zit5mk65cphj-fill" data-item-order="0" transform="translate(63.10443115234375, 360.5458984375)"><g id="tx_activele_zit5mk65cphj-fill" stroke="none" fill="#f4f4f4"><g><text style="font: 20px Comfortaa, sans-serif; white-space: pre;" font-size="20px" font-family="Comfortaa, sans-serif"><tspan x="53.68" y="33.2" dominant-baseline="ideographic">Active </tspan><tspan x="22.35" y="57.2" dominant-baseline="ideographic">Learning</tspan></text></g></g></g><g id="g-root-tx_inclusio_4gp3uk65cq9t-fill" data-item-order="0" transform="translate(63.10443115234375, 265.27685546875)"><g id="tx_inclusio_4gp3uk65cq9t-fill" stroke="none" fill="#f4f4f4"><g><text style="font: 20px Comfortaa, sans-serif; white-space: pre;" font-size="20px" font-family="Comfortaa, sans-serif"><tspan x="22.17" y="33.2" dominant-baseline="ideographic">Inclusion </tspan><tspan x="31.04" y="57.2" dominant-baseline="ideographic">Criteria </tspan><tspan x="30.54" y="81.2" dominant-baseline="ideographic">Top 1000</tspan></text></g></g></g><g id="g-root-doub_147d4n065cpvq-fill" data-item-order="0" transform="translate(194.73892211914062, 200.0079345703125)"></g><g id="g-root-2_v485vg65l3wv-fill" data-item-order="0" transform="translate(194.73892211914062, 366.5458984375)"></g><g id="g-root-tx_synergyr_140i30c65cnpn-fill" data-item-order="0" transform="translate(39.10443115234375, 194.0079345703125)"><g id="tx_synergyr_140i30c65cnpn-fill" stroke="none" fill="#f4f4f4"><g><text style="font: 20px Comfortaa, sans-serif; white-space: pre;" font-size="20px" font-family="Comfortaa, sans-serif"><tspan x="57.11" y="33.2" dominant-baseline="ideographic">Synergy </tspan><tspan x="23.45" y="57.2" dominant-baseline="ideographic">Replication</tspan></text></g></g></g><g id="g-root-sear_magxj065bc3t-fill" data-item-order="0" transform="translate(194.73892211914062, 116.7388916015625)"></g><g id="g-root-tx_snowball_1qf3anw65bax1-fill" data-item-order="0" transform="translate(39.10443115234375, 455.8148193359375)"><g id="tx_snowball_1qf3anw65bax1-fill" stroke="none" fill="#f4f4f4"><g><text style="font: 20px Comfortaa, sans-serif; white-space: pre;" font-size="20px" font-family="Comfortaa, sans-serif"><tspan x="13.65" y="33.2" dominant-baseline="ideographic">Snowballing</tspan></text></g></g></g><g id="g-root-2_8zc1o655ngi-fill" data-item-order="0" transform="translate(194.73892211914062, 449.8148193359375)"></g><g id="g-root-tx_comprehe_de7jcs65cnpp-fill" data-item-order="0" transform="translate(3.10443115234375, 110.7388916015625)"><g id="tx_comprehe_de7jcs65cnpp-fill" stroke="none" fill="#f4f4f4"><g><text style="font: 20px Comfortaa, sans-serif; white-space: pre;" font-size="20px" font-family="Comfortaa, sans-serif"><tspan x="15.31" y="33.2" dominant-baseline="ideographic">Comprehensive </tspan><tspan x="103.54" y="57.2" dominant-baseline="ideographic">Search</tspan></text></g></g></g><g id="g-root-tx_dimensio_i09scc65bb43-fill" data-item-order="0" transform="translate(39.10443115234375, 539.0838623046875)"><g id="tx_dimensio_i09scc65bb43-fill" stroke="none" fill="#f4f4f4"><g><text style="font: 20px Comfortaa, sans-serif; white-space: pre;" font-size="20px" font-family="Comfortaa, sans-serif"><tspan x="19.64" y="33.2" dominant-baseline="ideographic">Dimensions</tspan></text></g></g></g><g id="g-root-diam_mgp5fg65icqu-fill" data-item-order="0" transform="translate(194.73892211914062, 533.0838623046875)"></g><g id="g-root-tx_datainte_1lsekl865cqof-fill" data-item-order="0" transform="translate(205.3291015625, 27.365478515625)"><g id="tx_datainte_1lsekl865cqof-fill" stroke="none" fill="#f4f4f4"><g><text style="font: bold 25px Comfortaa, sans-serif; white-space: pre;" font-weight="bold" font-size="25px" font-family="Comfortaa, sans-serif"><tspan x="15.3" y="41.8" dominant-baseline="ideographic">Data Integration Process</tspan></text></g></g></g><g id="g-root--1.cu_sy_qvaxmk5vfwnd-stroke" data-item-order="-181592" transform="translate(325.746826171875, 110.94775390625)"><g id="-1.cu_sy_qvaxmk5vfwnd-stroke" fill="none" stroke-linecap="round" stroke-linejoin="round" stroke-miterlimit="4" stroke="#2c2c2c" stroke-width="2"><g><path d="M 65.281296 473.927185C 80.139046 473.927185 105.164558 370.073639 105.164558 241.963593C 105.164558 113.853668 80.139046 10.000002 65.281296 10.000002C 80.159286 10.012095 92.21991 114.169106 92.21991 241.963593C 92.21991 369.758209 80.159286 473.9151 65.281296 473.927185ZM 65.280602 473.927185C 80.158684 473.9151 92.219307 369.758209 92.219307 241.963593C 92.219307 114.169106 80.158684 10.012095 65.280602 10.000002L 51.592266 10.000002C 65.57283 18.321449 76.61451 119.30304 76.61451 241.963593C 76.61451 364.624237 64.900635 465.605774 50.920067 473.927185L 65.280602 473.927185ZM 76.615204 241.963593C 76.615204 364.624237 64.901329 465.605774 50.920761 473.927185L 49.71286 473.927185C 34.855198 473.927185 10.000006 370.073639 10.000006 241.963593C 10.000006 113.853668 34.855198 10.000002 49.71286 10.000002C 50.344917 10.000002 51.59296 10.000002 51.59296 10.000002C 65.573532 18.321449 76.615204 119.30304 76.615204 241.963593Z"></path></g></g></g><g id="g-root-0.cr-medium_cr_mfhfi45vfxfm-stroke" data-item-order="-181588" transform="translate(493.276123046875, 307.22467041015625)"><g id="0.cr-medium_cr_mfhfi45vfxfm-stroke" fill="none" stroke-linecap="round" stroke-linejoin="round" stroke-miterlimit="4" stroke="#2c2c2c" stroke-width="2"><g><path d="M 10.003881 45.68533C 9.788096 58.576714 16.542029 70.582268 27.67172 77.091057C 38.801411 83.599847 52.57635 83.599847 63.706041 77.091057C 74.835732 70.582268 81.589666 58.576714 81.37388 45.685329C 81.589666 32.793945 74.835732 20.78839 63.706041 14.279601C 52.57635 7.770812 38.801411 7.770812 27.67172 14.279601C 16.542029 20.78839 9.788096 32.793945 10.003881 45.685329"></path></g></g></g><g id="g-root-6.line_sy_djuf985vfy8b-stroke" data-item-order="-181581" transform="translate(242.47787475585938, 384.54583740234375)"><g id="6.line_sy_djuf985vfy8b-stroke" fill="none" stroke-linecap="round" stroke-linejoin="round" stroke-miterlimit="4" stroke="#7f64e9" stroke-width="2"><g><path d="M 270.402136 11.51416L 128.952136 176.53416L 10.002136 176.53416"></path><path d="M 271.402136 20.31416L 270.702136 11.11416L 261.602136 11.81416" stroke-dasharray="none"></path></g></g></g><g id="g-root-6.cr-small_cr_94ne7w5vfvus-stroke" data-item-order="-181580" transform="translate(183, 521.3449096679688)"><g id="6.cr-small_cr_94ne7w5vfvus-stroke" fill="none" stroke-linecap="round" stroke-linejoin="round" stroke-miterlimit="4" stroke="#2d2c32" stroke-width="2"><g><path d="M 9.999998 39.73509C 10 56.16004 23.315051 69.475091 39.739999 69.475091C 56.164948 69.475091 69.479999 56.16004 69.479999 39.735092C 69.479999 23.310143 56.164948 9.995092 39.739999 9.995092C 23.315051 9.995092 10 23.310143 10 39.735092"></path></g></g></g><g id="g-root-5.line_sy_94ne7w5vfvut-stroke" data-item-order="-181573" transform="translate(242.47787475585938, 370.667724609375)"><g id="5.line_sy_94ne7w5vfvut-stroke" fill="none" stroke-linecap="round" stroke-linejoin="round" stroke-miterlimit="4" stroke="#b95ce3" stroke-width="2"><g><path d="M 255.242136 11.21228L 128.952136 107.14228L 10.002136 107.14228"></path><path d="M 254.402136 20.01228L 255.602136 10.91228L 246.502136 9.71228" stroke-dasharray="none"></path></g></g></g><g id="g-root-5.cr-small_cr_90dz05vfwni-stroke" data-item-order="-181572" transform="translate(183, 438.075927734375)"><g id="5.cr-small_cr_90dz05vfwni-stroke" fill="none" stroke-linecap="round" stroke-linejoin="round" stroke-miterlimit="4" stroke="#2f2b31" stroke-width="2"><g><path d="M 9.999998 39.734072C 10 56.159022 23.315051 69.474073 39.739999 69.474073C 56.164948 69.474073 69.479999 56.159022 69.479999 39.734074C 69.479999 23.309125 56.164948 9.994074 39.739999 9.994074C 23.315051 9.994074 10 23.309125 10 39.734074"></path></g></g></g><g id="g-root-4.line_sy_1uuaxto5vfx8n-stroke" data-item-order="-181565" transform="translate(242.47787475585938, 352.8243408203125)"><g id="4.line_sy_1uuaxto5vfx8n-stroke" fill="none" stroke-linecap="round" stroke-linejoin="round" stroke-miterlimit="4" stroke="#dd57a8" stroke-width="2"><g><path d="M 247.962136 10.505676L 128.952136 41.725676L 10.002136 41.725676"></path><path d="M 243.802136 18.305676L 248.402136 10.405676L 240.502136 5.705676" stroke-dasharray="none"></path></g></g></g><g id="g-root-4.cr-small_cr_1qehfp85vfy0w-stroke" data-item-order="-181564" transform="translate(183, 354.80694580078125)"><g id="4.cr-small_cr_1qehfp85vfy0w-stroke" fill="none" stroke-linecap="round" stroke-linejoin="round" stroke-miterlimit="4" stroke="#302b2e" stroke-width="2"><g><path d="M 9.999998 39.743054C 10 56.168004 23.315051 69.483055 39.739999 69.483055C 56.164948 69.483055 69.479999 56.168004 69.479999 39.743055C 69.479999 23.318107 56.164948 10.003056 39.739999 10.003056C 23.315051 10.003056 10 23.318107 10 39.743055"></path></g></g></g><g id="g-root-3.line_sy_1hjgwjg5vfvnt-stroke" data-item-order="-181557" transform="translate(242.5863037109375, 301.27691650390625)"><g id="3.line_sy_1hjgwjg5vfvnt-stroke" fill="none" stroke-linecap="round" stroke-linejoin="round" stroke-miterlimit="4" stroke="#e45752" stroke-width="2"><g><path d="M 247.853693 41.213113L 128.843693 10.003113L 10.003693 10.003113"></path><path d="M 240.403693 46.003113L 248.303693 41.303113L 243.703693 33.403113" stroke-dasharray="none"></path></g></g></g><g id="g-root-3.cr-small_cr_1d3nef05vfwg2-stroke" data-item-order="-181556" transform="translate(183, 271.5379638671875)"><g id="3.cr-small_cr_1d3nef05vfwg2-stroke" fill="none" stroke-linecap="round" stroke-linejoin="round" stroke-miterlimit="4" stroke="#302b2a" stroke-width="2"><g><path d="M 9.999998 39.742036C 10 56.166986 23.315051 69.482037 39.739999 69.482037C 56.164948 69.482037 69.479999 56.166986 69.479999 39.742037C 69.479999 23.317089 56.164948 10.002038 39.739999 10.002038C 23.315051 10.002038 10 23.317089 10 39.742037"></path></g></g></g><g id="g-root-2.line_sy_1480e645vfx8r-stroke" data-item-order="-181549" transform="translate(242.47787475585938, 218.0079345703125)"><g id="2.line_sy_1480e645vfx8r-stroke" fill="none" stroke-linecap="round" stroke-linejoin="round" stroke-miterlimit="4" stroke="#de8431" stroke-width="2"><g><path d="M 255.242136 105.942075L 128.952136 10.002075L 10.002136 10.002075"></path><path d="M 246.502136 107.502075L 255.602136 106.202075L 254.402136 97.102075" stroke-dasharray="none"></path></g></g></g><g id="g-root-2.cr-small_cr_zs6w1o5vfy10-stroke" data-item-order="-181548" transform="translate(183, 188.26898193359375)"><g id="2.cr-small_cr_zs6w1o5vfy10-stroke" fill="none" stroke-linecap="round" stroke-linejoin="round" stroke-miterlimit="4" stroke="#2f2c29" stroke-width="2"><g><path d="M 9.999998 39.741018C 10 56.165968 23.315051 69.481019 39.739999 69.481019C 56.164948 69.481019 69.479999 56.165968 69.479999 39.741019C 69.479999 23.316071 56.164948 10.00102 39.739999 10.00102C 23.315051 10.00102 10 23.316071 10 39.741019"></path></g></g></g><g id="g-root-1.line_sy_zs6w1o5vfy11-stroke" data-item-order="-181541" transform="translate(242.47787475585938, 134.7388916015625)"><g id="1.line_sy_zs6w1o5vfy11-stroke" fill="none" stroke-linecap="round" stroke-linejoin="round" stroke-miterlimit="4" stroke="#f0d80d" stroke-width="2"><g><path d="M 270.402136 175.021099L 128.952136 10.001099L 10.002136 10.001099"></path><path d="M 261.602136 174.701099L 270.702136 175.401099L 271.402136 166.201099" stroke-dasharray="none"></path></g></g></g><g id="g-root-1.cr-small_cr_qn6ri45vha8e-stroke" data-item-order="-181540" transform="translate(183, 105)"><g id="1.cr-small_cr_qn6ri45vha8e-stroke" fill="none" stroke-linecap="round" stroke-linejoin="round" stroke-miterlimit="4" stroke="#2e2e28" stroke-width="2"><g><path d="M 10 39.74C 10.000002 56.16495 23.315053 69.480001 39.740001 69.480001C 56.16495 69.480001 69.480001 56.16495 69.480001 39.740001C 69.480001 23.315053 56.16495 10.000002 39.740001 10.000002C 23.315053 10.000002 10.000002 23.315053 10.000002 39.740001"></path></g></g></g><g id="g-root-2_dgp67w6571fr-stroke" data-item-order="0" transform="translate(194.73892211914062, 283.27685546875)"><g id="2_dgp67w6571fr-stroke" fill="none" stroke-linecap="round" stroke-linejoin="round" stroke-miterlimit="4" stroke="#fb6762" stroke-width="2"><g><path d="M 44.714287 11.285714L 11.285714 11.285714L 24.142857 29.285713L 24.142857 44.714287L 31.857143 39.571426L 31.857143 29.285713L 44.714287 11.285714Z"></path></g></g></g><g id="g-root-comp_dbq94s5vhbtb-stroke" data-item-order="0" transform="translate(503.9715576171875, 318.911376953125)"><g id="comp_dbq94s5vhbtb-stroke" fill="none" stroke-linecap="round" stroke-linejoin="round" stroke-miterlimit="4" stroke="#b7b7b7" stroke-width="2"><g><path d="M 29.91 32.978001C 29.909641 35.237099 31.740902 37.068649 34 37.068649C 36.259102 37.068649 38.090363 35.237099 38.09 32.978001C 38.090363 30.718903 36.259102 28.88735 34 28.88735C 31.740902 28.88735 29.909641 30.718903 29.91 32.978001M 11 32.978001C 10.99964 35.237099 12.830901 37.068649 15.09 37.068649C 17.349098 37.068649 19.180359 35.237099 19.18 32.978001C 19.180359 30.718903 17.349098 28.88735 15.09 28.88735C 12.830901 28.88735 10.99964 30.718903 11 32.978001M 29.91 15.09C 29.909641 17.349098 31.740902 19.180653 34 19.180653C 36.259102 19.180653 38.090363 17.349098 38.09 15.09C 38.090363 12.830901 36.259102 10.999349 34 10.999349C 31.740902 10.999349 29.909641 12.830901 29.91 15.09M 29.91 52.91C 29.909641 55.169102 31.740902 57.000652 34 57.000652C 36.259102 57.000652 38.090363 55.169102 38.09 52.91C 38.090363 50.650902 36.259102 48.819351 34 48.819351C 31.740902 48.819351 29.909641 50.650902 29.91 52.91M 48.82 52.91C 48.819641 55.169102 50.650902 57.000652 52.91 57.000652C 55.169102 57.000652 57.000362 55.169102 57 52.91C 57.000362 50.650902 55.169102 48.819351 52.91 48.819351C 50.650902 48.819351 48.819641 50.650902 48.82 52.91M 48.82 32.978001C 48.819641 35.237099 50.650902 37.068649 52.91 37.068649C 55.169102 37.068649 57.000362 35.237099 57 32.978001C 57.000362 30.718903 55.169102 28.88735 52.91 28.88735C 50.650902 28.88735 48.819641 30.718903 48.82 32.978001M 11 15.09C 10.99964 17.349098 12.830901 19.180653 15.09 19.180653C 17.349098 19.180653 19.180359 17.349098 19.18 15.09C 19.180359 12.830901 17.349098 10.999349 15.09 10.999349C 12.830901 10.999349 10.99964 12.830901 11 15.09M 48.82 15.09C 48.819641 17.349098 50.650902 19.180653 52.91 19.180653C 55.169102 19.180653 57.000362 17.349098 57 15.09C 57.000362 12.830901 55.169102 10.999349 52.91 10.999349C 50.650902 10.999349 48.819641 12.830901 48.82 15.09M 11 52.91C 10.99964 55.169102 12.830901 57.000652 15.09 57.000652C 17.349098 57.000652 19.180359 55.169102 19.18 52.91C 19.180359 50.650902 17.349098 48.819351 15.09 48.819351C 12.830901 48.819351 10.99964 50.650902 11 52.91M 17.903999 49.939999L 31.186001 35.947998M 52.91 19.181999L 52.91 28.886M 38.09 32.978001L 48.818001 32.978001M 36.973999 30.167999L 49.933998 17.9M 18.066 17.9L 31.025999 30.167999"></path></g></g></g><g id="g-root-tx_unifiedd_1qd7vek65bbwp-stroke" data-item-order="0" transform="translate(575.5538330078125, 318.911376953125)"></g><g id="g-root-tx_activele_zit5mk65cphj-stroke" data-item-order="0" transform="translate(63.10443115234375, 360.5458984375)"></g><g id="g-root-tx_inclusio_4gp3uk65cq9t-stroke" data-item-order="0" transform="translate(63.10443115234375, 265.27685546875)"></g><g id="g-root-doub_147d4n065cpvq-stroke" data-item-order="0" transform="translate(194.73892211914062, 200.0079345703125)"><g id="doub_147d4n065cpvq-stroke" fill="none" stroke-linecap="round" stroke-linejoin="round" stroke-miterlimit="4" stroke="#f79438" stroke-width="2"><g><path d="M 16.75 35.876499C 16.75 37.740463 18.26104 39.251499 20.125 39.251499C 21.988962 39.251499 23.5 37.740463 23.5 35.876499C 23.5 34.012539 21.988962 32.501499 20.125 32.501499C 18.26104 32.501499 16.75 34.012539 16.75 35.876499ZM 28.532499 38.566002L 27.015999 37.689999C 27.327991 36.501129 27.327991 35.251873 27.015999 34.063L 28.532499 33.187C 28.891201 32.979885 29.014097 32.52121 28.806999 32.162498L 27.681999 30.212502C 27.474888 29.853798 27.016211 29.730904 26.657499 29.938L 25.140999 30.8125C 24.267622 29.948265 23.185595 29.324575 22 29.002001L 22 27.25C 22 26.835787 21.664213 26.5 21.25 26.5L 19 26.5C 18.585787 26.5 18.25 26.835787 18.25 27.25L 18.25 29.0005C 17.064095 29.323935 15.982037 29.948675 15.109 30.814001L 13.6 29.941C 13.24129 29.733902 12.782613 29.856798 12.5755 30.2155L 11.4505 32.165501C 11.243403 32.524208 11.366299 32.982887 11.725 33.189999L 13.2415 34.066002C 12.929508 35.254875 12.929508 36.504128 13.2415 37.693001L 11.725 38.569C 11.366299 38.776112 11.243403 39.234791 11.4505 39.593498L 12.5755 41.543499C 12.782613 41.902199 13.24129 42.025097 13.6 41.818001L 15.1165 40.943501C 15.988112 41.805534 17.067398 42.428101 18.25 42.750999L 18.25 44.5C 18.25 44.914215 18.585787 45.25 19 45.25L 21.25 45.25C 21.664213 45.25 22 44.914215 22 44.5L 22 42.750999C 23.185905 42.427567 24.267963 41.802826 25.140999 40.9375L 26.657499 41.812C 27.016211 42.019096 27.474888 41.896202 27.681999 41.537498L 28.806999 39.587502C 29.01206 39.229462 28.889406 38.773026 28.532499 38.566002ZM 32.5 20.126499C 32.5 21.990461 34.01104 23.501501 35.875 23.501501C 37.73896 23.501501 39.25 21.990461 39.25 20.126499C 39.25 18.262539 37.73896 16.751499 35.875 16.751499C 34.01104 16.751499 32.5 18.262539 32.5 20.126499ZM 27.467501 17.437L 28.984001 18.313C 28.672009 19.501873 28.672009 20.751129 28.984001 21.940001L 27.467501 22.816C 27.108799 23.023113 26.985903 23.481789 27.193001 23.8405L 28.318001 25.790501C 28.525112 26.1492 28.983789 26.272097 29.342501 26.065001L 30.859001 25.1905C 31.732378 26.054735 32.814404 26.678425 34 27.000999L 34 28.75C 34 29.164213 34.335785 29.5 34.75 29.5L 37 29.5C 37.414215 29.5 37.75 29.164213 37.75 28.75L 37.75 27.000999C 38.935905 26.677567 40.017963 26.052826 40.890999 25.1875L 42.407501 26.062C 42.766212 26.269096 43.224888 26.146202 43.431999 25.787498L 44.556999 23.837502C 44.764099 23.47879 44.641201 23.020113 44.282501 22.813L 42.765999 21.940001C 43.077991 20.751129 43.077991 19.501873 42.765999 18.313L 44.282501 17.437C 44.641201 17.229887 44.764099 16.77121 44.556999 16.4125L 43.431999 14.4625C 43.224888 14.103799 42.766212 13.980904 42.407501 14.188L 40.890999 15.0625C 40.017624 14.198265 38.935593 13.574574 37.75 13.252L 37.75 11.5C 37.75 11.085787 37.414215 10.75 37 10.75L 34.75 10.75C 34.335785 10.75 34 11.085787 34 11.5L 34 13.252C 32.814095 13.575434 31.732037 14.200174 30.859001 15.0655L 29.349998 14.191C 28.991291 13.983903 28.532612 14.106799 28.3255 14.4655L 27.2005 16.415501C 26.994162 16.771584 27.11331 17.227427 27.467501 17.437Z"></path></g></g></g><g id="g-root-2_v485vg65l3wv-stroke" data-item-order="0" transform="translate(194.73892211914062, 366.5458984375)"><g id="2_v485vg65l3wv-stroke" fill="none" stroke-linecap="round" stroke-linejoin="round" stroke-miterlimit="4" stroke="#f366bb" stroke-width="2"><g><path d="M 25.774 34.75L 12.274 34.75C 11.445573 34.75 10.774 34.078426 10.774 33.25L 10.774 12.25C 10.774 11.421573 11.445573 10.75 12.274 10.75L 42.274002 10.75C 43.102428 10.75 43.774002 11.421573 43.774002 12.25L 43.774002 31.75M 16.743999 16.75L 27.976 27.982M 27.976 23.1805L 27.976 27.982L 23.1745 27.982M 16.743999 21.5515L 16.743999 16.75L 21.5455 16.75M 45.225998 45.25L 45.225998 41.248001C 45.224346 38.487198 42.985806 36.25 40.225002 36.250004L 37.725998 36.25L 37.725998 29.5C 37.726002 28.25736 36.718643 27.25 35.476002 27.25C 34.23336 27.25 33.226002 28.25736 33.226002 29.5L 33.226002 40L 31.299999 38.378502C 30.637259 37.582382 29.454618 37.474258 28.658501 38.137001C 27.862381 38.79974 27.754257 39.982384 28.417 40.7785L 32.127998 45.25"></path></g></g></g><g id="g-root-tx_synergyr_140i30c65cnpn-stroke" data-item-order="0" transform="translate(39.10443115234375, 194.0079345703125)"></g><g id="g-root-sear_magxj065bc3t-stroke" data-item-order="0" transform="translate(194.73892211914062, 116.7388916015625)"><g id="sear_magxj065bc3t-stroke" fill="none" stroke-linecap="round" stroke-linejoin="round" stroke-miterlimit="4" stroke="#ffe711" stroke-width="2"><g><path d="M 11.285714 25.222857C 11.284246 32.921165 17.524548 39.162659 25.222857 39.162659C 32.921165 39.162659 39.161465 32.921165 39.16 25.222857C 39.161465 17.524548 32.921165 11.283056 25.222857 11.283056C 17.524548 11.283056 11.284246 17.524548 11.285714 25.222857M 44.714287 44.714287L 35.071426 35.071426"></path></g></g></g><g id="g-root-tx_snowball_1qf3anw65bax1-stroke" data-item-order="0" transform="translate(39.10443115234375, 455.8148193359375)"></g><g id="g-root-2_8zc1o655ngi-stroke" data-item-order="0" transform="translate(194.73892211914062, 449.8148193359375)"><g id="2_8zc1o655ngi-stroke" fill="none" stroke-linecap="round" stroke-linejoin="round" stroke-miterlimit="4" stroke="#cb68f9" stroke-width="2"><g><path d="M 44.714287 28L 11.285714 28M 37 13.857142L 19 42.142857M 19 13.857142L 37 42.142857"></path></g></g></g><g id="g-root-tx_comprehe_de7jcs65cnpp-stroke" data-item-order="0" transform="translate(3.10443115234375, 110.7388916015625)"></g><g id="g-root-tx_dimensio_i09scc65bb43-stroke" data-item-order="0" transform="translate(39.10443115234375, 539.0838623046875)"></g><g id="g-root-diam_mgp5fg65icqu-stroke" data-item-order="0" transform="translate(194.73892211914062, 533.0838623046875)"><g id="diam_mgp5fg65icqu-stroke" fill="none" stroke-linecap="round" stroke-linejoin="round" stroke-miterlimit="4" stroke="#8769fd" stroke-width="2"><g><path d="M 45.254501 21.25L 10.756 21.25M 21.223 21.251499L 28.006001 10.75L 34.788998 21.251499M 18.2815 10.8385L 28.006001 45.25M 37.730499 10.8385L 28.006001 45.25M 27.4135 44.949997C 27.550411 45.140999 27.771 45.254284 28.006001 45.254284C 28.240999 45.254284 28.46159 45.140999 28.598499 44.949997L 45.0415 21.924999C 45.328758 21.519409 45.323921 20.975422 45.029503 20.575001L 37.980999 11.05C 37.839359 10.861146 37.617069 10.75 37.381001 10.75L 18.634001 10.75C 18.397932 10.75 18.17564 10.861146 18.034 11.05L 10.9825 20.569C 10.688078 20.969421 10.683243 21.513409 10.9705 21.919001Z"></path></g></g></g><g id="g-root-tx_datainte_1lsekl865cqof-stroke" data-item-order="0" transform="translate(205.3291015625, 27.365478515625)"></g></g></g></svg>